<svg width="16" height="18" viewBox="0 0 16 18" fill="none" xmlns="http://www.w3.org/2000/svg">
<path fill-rule="evenodd" clip-rule="evenodd" d="M13.8333 2.33366H13V1.50033C13 1.04199 12.625 0.666992 12.1667 0.666992C11.7083 0.666992 11.3333 1.04199 11.3333 1.50033V2.33366H4.66667V1.50033C4.66667 1.04199 4.29167 0.666992 3.83333 0.666992C3.375 0.666992 3 1.04199 3 1.50033V2.33366H2.16667C1.24167 2.33366 0.508333 3.08366 0.508333 4.00033L0.5 15.667C0.5 16.5837 1.24167 17.3337 2.16667 17.3337H13.8333C14.75 17.3337 15.5 16.5837 15.5 15.667V4.00033C15.5 3.08366 14.75 2.33366 13.8333 2.33366ZM13.8333 14.8337C13.8333 15.292 13.4583 15.667 13 15.667H3C2.54167 15.667 2.16667 15.292 2.16667 14.8337V6.50033H13.8333V14.8337ZM7.16667 8.16699H4.66667C4.20833 8.16699 3.83333 8.54199 3.83333 9.00033V11.5003C3.83333 11.9587 4.20833 12.3337 4.66667 12.3337H7.16667C7.625 12.3337 8 11.9587 8 11.5003V9.00033C8 8.54199 7.625 8.16699 7.16667 8.16699Z" fill="#26292C"/>
</svg>